# xmcd
#
# Track frame offsets: 
#        150
#        17584
#        32091
#        46479
#        61671
#        73445
#        86988
#        102424
#        114727
#        129981
#
# Disc length: 1903 seconds
#
# Revision: 1
# Processed by: cddbd v1.5.2PL0 Copyright (c) Steve Scherf et al.
# Submitted via: ExactAudioCopy v0.95b4
#
DISCID=8b076d0a
DTITLE=J_mors - Ассорти
DYEAR=2000
DGENRE=Rock
TTITLE0=Поезд
TTITLE1=The Gaishnique
TTITLE2=Не я
TTITLE3=Rain
TTITLE4=Ода вечной любви
TTITLE5=Калистрат
TTITLE6=Октябрь
TTITLE7=Фикус
TTITLE8=Он родился в пивной
TTITLE9=Вот солнце кроет горизонт
EXTD=YEAR: 2000
EXTT0=
EXTT1=
EXTT2=
EXTT3=
EXTT4=
EXTT5=
EXTT6=
EXTT7=
EXTT8=
EXTT9=
PLAYORDER=
